<svg width="24" height="25" viewBox="0 0 24 25" fill="none" xmlns="http://www.w3.org/2000/svg">
<path d="M2.74994 19.15C2.33994 19.15 1.99994 18.81 1.99994 18.4V12.7C1.94994 9.98999 2.95994 7.42999 4.83994 5.50999C6.71994 3.59999 9.23994 2.54999 11.9499 2.54999C17.4899 2.54999 21.9999 7.05999 21.9999 12.6V18.3C21.9999 18.71 21.6599 19.05 21.2499 19.05C20.8399 19.05 20.4999 18.71 20.4999 18.3V12.6C20.4999 7.88999 16.6699 4.04999 11.9499 4.04999C9.63994 4.04999 7.49994 4.93999 5.90994 6.55999C4.30994 8.18999 3.45994 10.36 3.49994 12.68V18.39C3.49994 18.81 3.16994 19.15 2.74994 19.15Z" fill="#555555"/>
<path d="M5.94 12.95H5.81C3.71 12.95 2 14.66 2 16.76V18.64C2 20.74 3.71 22.45 5.81 22.45H5.94C8.04 22.45 9.75 20.74 9.75 18.64V16.76C9.75 14.66 8.04 12.95 5.94 12.95Z" fill="#555555"/>
<path d="M18.19 12.95H18.06C15.96 12.95 14.25 14.66 14.25 16.76V18.64C14.25 20.74 15.96 22.45 18.06 22.45H18.19C20.29 22.45 22 20.74 22 18.64V16.76C22 14.66 20.29 12.95 18.19 12.95Z" fill="#555555"/>
</svg>
