<svg width="25" height="24" viewBox="0 0 25 24" fill="none" xmlns="http://www.w3.org/2000/svg">
<path fill-rule="evenodd" clip-rule="evenodd" d="M15.115 1.59486C15.2614 1.67635 15.3763 1.80454 15.4413 1.95896C15.5064 2.11338 15.5179 2.28515 15.474 2.44686L13.482 9.74986H20.75C20.8961 9.74987 21.0391 9.79258 21.1613 9.87276C21.2835 9.95293 21.3796 10.0671 21.4378 10.2011C21.4961 10.3352 21.5138 10.4834 21.489 10.6274C21.4641 10.7714 21.3977 10.9051 21.298 11.0119L10.798 22.2619C10.6836 22.3847 10.5313 22.4656 10.3656 22.4916C10.1998 22.5177 10.0301 22.4874 9.88357 22.4056C9.73704 22.3238 9.62218 22.1952 9.55735 22.0405C9.49252 21.8857 9.48146 21.7137 9.52595 21.5519L11.518 14.2499H4.24995C4.10379 14.2498 3.96082 14.2071 3.83861 14.127C3.7164 14.0468 3.62028 13.9327 3.56206 13.7986C3.50384 13.6645 3.48607 13.5164 3.51092 13.3723C3.53578 13.2283 3.60217 13.0947 3.70195 12.9879L14.202 1.73786C14.3163 1.6155 14.4683 1.53495 14.6338 1.50903C14.7993 1.48312 14.9687 1.51333 15.115 1.59486Z" fill="white"/>
</svg>
