<svg width="20" height="20" viewBox="0 0 20 20" fill="none" xmlns="http://www.w3.org/2000/svg">
<g clip-path="url(#clip0_1065_84)">
<path d="M0 2C0 0.9 0.9 0 2 0H18C18.5304 0 19.0391 0.210714 19.4142 0.585786C19.7893 0.960859 20 1.46957 20 2V4C20 4.53043 19.7893 5.03914 19.4142 5.41421C19.0391 5.78929 18.5304 6 18 6H2C1.46957 6 0.960859 5.78929 0.585786 5.41421C0.210714 5.03914 0 4.53043 0 4V2ZM0 9C0 7.9 0.9 7 2 7H18C18.5304 7 19.0391 7.21071 19.4142 7.58579C19.7893 7.96086 20 8.46957 20 9V11C20 11.5304 19.7893 12.0391 19.4142 12.4142C19.0391 12.7893 18.5304 13 18 13H2C1.46957 13 0.960859 12.7893 0.585786 12.4142C0.210714 12.0391 0 11.5304 0 11V9ZM0 16C0 14.9 0.9 14 2 14H18C18.5304 14 19.0391 14.2107 19.4142 14.5858C19.7893 14.9609 20 15.4696 20 16V18C20 18.5304 19.7893 19.0391 19.4142 19.4142C19.0391 19.7893 18.5304 20 18 20H2C1.46957 20 0.960859 19.7893 0.585786 19.4142C0.210714 19.0391 0 18.5304 0 18V16ZM12 2V4H14V2H12ZM16 2V4H18V2H16ZM12 9V11H14V9H12ZM16 9V11H18V9H16ZM12 16V18H14V16H12ZM16 16V18H18V16H16Z" fill="#555555"/>
</g>
<defs>
<clipPath id="clip0_1065_84">
<rect width="20" height="20" fill="white"/>
</clipPath>
</defs>
</svg>
